<svg xmlns="http://www.w3.org/2000/svg" viewBox="0 0 1200 800" fill="none">
  <defs>
    <linearGradient id="bg" x1="160" y1="90" x2="1040" y2="710" gradientUnits="userSpaceOnUse">
      <stop stop-color="#0f172a"/>
      <stop offset="1" stop-color="#1e293b"/>
    </linearGradient>
    <linearGradient id="deskGlow" x1="360" y1="420" x2="840" y2="700" gradientUnits="userSpaceOnUse">
      <stop stop-color="#fde68a" stop-opacity=".42"/>
      <stop offset="1" stop-color="#f59e0b" stop-opacity="0"/>
    </linearGradient>
  </defs>
  <rect width="1200" height="800" rx="48" fill="url(#bg)"/>
  <rect x="260" y="170" width="680" height="430" rx="28" fill="#0b1020" stroke="#334155" stroke-width="10"/>
  <rect x="302" y="212" width="596" height="310" rx="18" fill="#111827"/>
  <rect x="470" y="130" width="260" height="26" rx="13" fill="#cbd5e1"/>
  <rect x="348" y="130" width="122" height="24" rx="12" fill="#94a3b8"/>
  <rect x="730" y="130" width="122" height="24" rx="12" fill="#94a3b8"/>
  <rect x="350" y="118" width="500" height="14" rx="7" fill="#94a3b8"/>
  <rect x="352" y="210" width="500" height="176" rx="14" fill="#0f172a" stroke="#334155" stroke-width="4"/>
  <circle cx="490" cy="288" r="48" fill="#60a5fa" fill-opacity=".18"/>
  <circle cx="650" cy="274" r="64" fill="#f472b6" fill-opacity=".16"/>
  <path d="M432 350h330" stroke="#60a5fa" stroke-opacity=".55" stroke-width="10" stroke-linecap="round"/>
  <path d="M488 352c32 58 92 88 162 88s130-30 162-88" stroke="#facc15" stroke-opacity=".36" stroke-width="12" stroke-linecap="round"/>
  <rect x="300" y="524" width="600" height="22" rx="11" fill="#475569"/>
  <rect x="536" y="546" width="128" height="48" rx="18" fill="#64748b"/>
  <rect x="190" y="610" width="820" height="82" rx="24" fill="url(#deskGlow)"/>
</svg>
