<svg xmlns="http://www.w3.org/2000/svg" viewBox="0 0 1200 800" fill="none">
  <defs>
    <linearGradient id="bg" x1="120" y1="80" x2="1080" y2="720" gradientUnits="userSpaceOnUse">
      <stop stop-color="#0f172a"/>
      <stop offset="1" stop-color="#312e81"/>
    </linearGradient>
  </defs>
  <rect width="1200" height="800" rx="48" fill="url(#bg)"/>
  <rect x="180" y="240" width="840" height="280" rx="36" fill="#111827" stroke="#334155" stroke-width="10"/>
  <rect x="220" y="280" width="760" height="200" rx="24" fill="#0b1020"/>
  <g fill="#e2e8f0">
    <rect x="252" y="308" width="58" height="46" rx="10"/><rect x="320" y="308" width="58" height="46" rx="10"/><rect x="388" y="308" width="58" height="46" rx="10"/><rect x="456" y="308" width="58" height="46" rx="10"/><rect x="524" y="308" width="58" height="46" rx="10"/><rect x="592" y="308" width="58" height="46" rx="10"/><rect x="660" y="308" width="58" height="46" rx="10"/><rect x="728" y="308" width="58" height="46" rx="10"/><rect x="796" y="308" width="58" height="46" rx="10"/><rect x="864" y="308" width="58" height="46" rx="10"/>
    <rect x="252" y="366" width="58" height="46" rx="10"/><rect x="320" y="366" width="58" height="46" rx="10"/><rect x="388" y="366" width="58" height="46" rx="10"/><rect x="456" y="366" width="58" height="46" rx="10"/><rect x="524" y="366" width="58" height="46" rx="10"/><rect x="592" y="366" width="58" height="46" rx="10"/><rect x="660" y="366" width="58" height="46" rx="10"/><rect x="728" y="366" width="58" height="46" rx="10"/><rect x="796" y="366" width="58" height="46" rx="10"/><rect x="864" y="366" width="58" height="46" rx="10"/>
  </g>
  <rect x="376" y="440" width="450" height="18" rx="9" fill="#94a3b8"/>
</svg>
