<svg xmlns="http://www.w3.org/2000/svg" viewBox="0 0 1200 800" fill="none">
  <defs>
    <linearGradient id="bg" x1="120" y1="80" x2="1080" y2="720" gradientUnits="userSpaceOnUse">
      <stop stop-color="#111827"/>
      <stop offset="1" stop-color="#0f172a"/>
    </linearGradient>
    <linearGradient id="glow" x1="260" y1="160" x2="960" y2="620" gradientUnits="userSpaceOnUse">
      <stop stop-color="#2563eb" stop-opacity=".35"/>
      <stop offset="1" stop-color="#f43f5e" stop-opacity=".12"/>
    </linearGradient>
  </defs>
  <rect width="1200" height="800" rx="48" fill="url(#bg)"/>
  <rect x="110" y="560" width="980" height="42" rx="21" fill="#1f2937"/>
  <rect x="190" y="290" width="380" height="230" rx="28" fill="#0b1020" stroke="#334155" stroke-width="8"/>
  <rect x="220" y="320" width="320" height="170" rx="18" fill="#111827" stroke="#1d4ed8" stroke-opacity=".28" stroke-width="6"/>
  <rect x="250" y="350" width="150" height="12" rx="6" fill="#93c5fd"/>
  <rect x="250" y="382" width="210" height="12" rx="6" fill="#94a3b8"/>
  <rect x="250" y="414" width="180" height="12" rx="6" fill="#64748b"/>
  <rect x="240" y="526" width="340" height="26" rx="13" fill="#475569"/>
  <rect x="370" y="552" width="80" height="78" rx="14" fill="#64748b"/>
  <rect x="650" y="300" width="320" height="130" rx="24" fill="#111827" stroke="#334155" stroke-width="8"/>
  <rect x="692" y="340" width="102" height="12" rx="6" fill="#e2e8f0"/>
  <rect x="692" y="370" width="176" height="12" rx="6" fill="#94a3b8"/>
  <rect x="650" y="470" width="198" height="72" rx="18" fill="#1e293b"/>
  <circle cx="910" cy="470" r="42" fill="#2563eb" fill-opacity=".35"/>
  <rect x="100" y="110" width="1000" height="600" rx="40" fill="url(#glow)"/>
</svg>
