<svg xmlns="http://www.w3.org/2000/svg" viewBox="0 0 1200 800" fill="none">
  <defs>
    <linearGradient id="bg" x1="160" y1="120" x2="1040" y2="680" gradientUnits="userSpaceOnUse">
      <stop stop-color="#0f172a"/>
      <stop offset="1" stop-color="#1e293b"/>
    </linearGradient>
  </defs>
  <rect width="1200" height="800" rx="48" fill="url(#bg)"/>
  <rect x="220" y="260" width="760" height="250" rx="40" fill="#111827" stroke="#334155" stroke-width="10"/>
  <rect x="270" y="300" width="660" height="170" rx="24" fill="#0b1020"/>
  <rect x="316" y="338" width="74" height="74" rx="16" fill="#1d4ed8" fill-opacity=".35"/>
  <rect x="414" y="338" width="74" height="74" rx="16" fill="#38bdf8" fill-opacity=".28"/>
  <rect x="512" y="338" width="74" height="74" rx="16" fill="#a855f7" fill-opacity=".24"/>
  <rect x="610" y="338" width="74" height="74" rx="16" fill="#f472b6" fill-opacity=".24"/>
  <rect x="708" y="338" width="74" height="74" rx="16" fill="#22c55e" fill-opacity=".22"/>
  <rect x="806" y="338" width="74" height="74" rx="16" fill="#eab308" fill-opacity=".22"/>
  <rect x="340" y="410" width="520" height="10" rx="5" fill="#475569"/>
  <circle cx="340" cy="250" r="24" fill="#94a3b8"/>
  <circle cx="400" cy="250" r="24" fill="#94a3b8"/>
  <circle cx="460" cy="250" r="24" fill="#94a3b8"/>
  <circle cx="520" cy="250" r="24" fill="#94a3b8"/>
  <rect x="430" y="530" width="340" height="20" rx="10" fill="#64748b"/>
  <rect x="520" y="550" width="160" height="48" rx="18" fill="#475569"/>
</svg>
